<svg width="87" height="20" viewBox="0 0 87 20" fill="none" xmlns="http://www.w3.org/2000/svg">
<g clip-path="url(#clip0_11777_6457)">
<path d="M0.516602 7.38468L8.3571 7.38625L13.1246 7.38706V2.66602L0.516602 7.38468Z" fill="white"/>
<path d="M13.1245 2.66579V19.3335L19.0791 0.436523L13.1245 2.66579Z" fill="white"/>
<path d="M13.1245 7.38753L8.35693 7.38672L13.1245 19.3341V7.38753Z" fill="white"/>
<path d="M0.516602 7.38477L9.57968 10.4519L8.3571 7.38633L0.516602 7.38477Z" fill="white"/>
<path d="M29.3993 14.9463C29.3301 15.0154 29.2149 15.1016 29.0539 15.2052C28.8925 15.3088 28.6825 15.4124 28.4235 15.516C28.1645 15.6195 27.8477 15.7085 27.4737 15.7836C27.0994 15.8582 26.6707 15.8957 26.1872 15.8957C25.2545 15.8957 24.4485 15.746 23.7694 15.447C23.0899 15.148 22.5287 14.7305 22.0856 14.1955C21.6423 13.6603 21.3171 13.0276 21.1099 12.2966C20.9027 11.5659 20.7991 10.7633 20.7991 9.88863C20.7991 9.01426 20.9113 8.20564 21.1358 7.4634C21.3603 6.72111 21.697 6.0798 22.146 5.53867C22.595 4.99795 23.1563 4.57497 23.8299 4.26991C24.5034 3.9652 25.2948 3.8125 26.2044 3.8125C26.6534 3.8125 27.0592 3.85291 27.4219 3.93332C27.7846 4.0139 28.1011 4.10892 28.3718 4.21814C28.6421 4.32766 28.8667 4.4425 29.0453 4.56338C29.2236 4.68419 29.3589 4.78513 29.4512 4.86542C29.5548 4.95772 29.6438 5.06694 29.7188 5.19338C29.7936 5.32017 29.8311 5.45826 29.8311 5.60772C29.8311 5.83805 29.7447 6.06809 29.572 6.29819C29.3994 6.52852 29.2094 6.7414 29.0021 6.93689C28.8639 6.79879 28.7085 6.65803 28.5359 6.51402C28.3631 6.37019 28.1702 6.24375 27.9573 6.13424C27.7442 6.02501 27.5024 5.93301 27.232 5.85805C26.9613 5.78332 26.6592 5.74581 26.3254 5.74581C25.7382 5.74581 25.246 5.86396 24.8488 6.09968C24.4516 6.3357 24.1321 6.64342 23.8904 7.02321C23.6486 7.403 23.4759 7.83745 23.3722 8.32646C23.2687 8.8157 23.2169 9.31335 23.2169 9.81964C23.2169 10.3606 23.2687 10.8785 23.3722 11.3731C23.4758 11.868 23.6542 12.3054 23.9076 12.685C24.1607 13.0647 24.4918 13.3698 24.9006 13.5998C25.3091 13.8302 25.8186 13.9451 26.429 13.9451C26.7511 13.9451 27.0477 13.9049 27.3183 13.8244C27.5887 13.7439 27.8277 13.646 28.035 13.5307C28.2422 13.4159 28.4236 13.2952 28.579 13.1684C28.7344 13.0418 28.8639 12.9327 28.9676 12.8404C29.0366 12.9211 29.117 13.019 29.2093 13.1339C29.3021 13.25 29.3885 13.371 29.4683 13.4964C29.5488 13.6231 29.6179 13.7496 29.6756 13.876C29.733 14.0029 29.7619 14.1178 29.7619 14.2212C29.7619 14.371 29.733 14.4975 29.6756 14.601C29.6178 14.7046 29.5258 14.8198 29.3993 14.9463ZM38.2989 13.6224C38.2989 14.5371 38.4319 15.2028 38.6985 15.6196C38.4901 15.7004 38.296 15.7584 38.1165 15.7931C37.9368 15.8279 37.7487 15.8452 37.5518 15.8452C37.1349 15.8452 36.8192 15.7642 36.6051 15.6021C36.3906 15.4402 36.2546 15.2087 36.1968 14.9075C35.9418 15.174 35.606 15.3997 35.1891 15.585C34.7721 15.7698 34.2623 15.8627 33.6602 15.8627C33.3475 15.8627 33.0348 15.8194 32.7221 15.7331C32.4093 15.6461 32.1254 15.505 31.8707 15.3091C31.6158 15.1127 31.4074 14.8501 31.2453 14.5212C31.0829 14.1923 31.002 13.7913 31.002 13.3182C31.002 12.7297 31.1438 12.2506 31.4277 11.8815C31.7114 11.512 32.0675 11.2207 32.4962 11.0071C32.9246 10.7938 33.388 10.6469 33.8861 10.5659C34.384 10.4851 34.8417 10.4333 35.2586 10.4099C35.3977 10.3985 35.5336 10.3925 35.6669 10.3925H36.0404V10.0765C36.0404 9.63145 35.9215 9.31532 35.6842 9.12812C35.4467 8.94087 35.0615 8.84701 34.5289 8.84701C34.0308 8.84701 33.5877 8.92811 33.1998 9.09009C32.8116 9.25236 32.4324 9.43742 32.0619 9.64583C31.8995 9.44907 31.7691 9.23207 31.6709 8.99461C31.5725 8.7575 31.5233 8.58085 31.5233 8.46496C31.5233 8.30298 31.6128 8.14668 31.7926 7.99607C31.972 7.8458 32.2182 7.70956 32.531 7.58799C32.8438 7.46642 33.2026 7.36821 33.6082 7.29279C34.0134 7.2176 34.4421 7.17991 34.8938 7.17991C35.5192 7.17991 36.0491 7.24368 36.4834 7.37094C36.9178 7.49848 37.271 7.69518 37.5433 7.96134C37.8153 8.22785 38.0094 8.5605 38.1252 8.95988C38.2409 9.35932 38.299 9.82549 38.299 10.3578L38.2989 13.6224ZM36.0751 11.6081H35.8319C35.7507 11.6081 35.6695 11.6141 35.5887 11.6255C35.299 11.6488 35.0123 11.6835 34.7287 11.7296C34.4447 11.776 34.1928 11.8571 33.973 11.9728C33.7528 12.0886 33.5733 12.2392 33.4344 12.4242C33.2953 12.6096 33.2259 12.847 33.2259 13.1363C33.2259 13.4605 33.3184 13.7353 33.5038 13.9611C33.6889 14.1869 34.0017 14.2998 34.442 14.2998C34.6619 14.2998 34.8705 14.271 35.0675 14.2128C35.2643 14.1552 35.438 14.0799 35.5887 13.9873C35.7391 13.8946 35.858 13.7934 35.9448 13.6832C36.0317 13.5734 36.0751 13.4722 36.0751 13.3795L36.0751 11.6081ZM42.6247 8.18703C42.8093 7.96726 43.0982 7.74423 43.4906 7.51842C43.8832 7.29267 44.3797 7.1798 44.9801 7.1798C45.4075 7.1798 45.8144 7.25221 46.2013 7.39685C46.5878 7.54173 46.9315 7.77623 47.2317 8.10019C47.532 8.42444 47.7715 8.85286 47.9506 9.38524C48.1295 9.9179 48.2191 10.5721 48.2191 11.3475C48.2191 12.2505 48.115 12.9946 47.9073 13.5791C47.6993 14.1639 47.431 14.627 47.1021 14.9684C46.773 15.3099 46.4062 15.5502 46.0023 15.689C45.5981 15.8279 45.1939 15.8975 44.79 15.8975C44.4551 15.8975 44.1634 15.8598 43.9154 15.7846C43.667 15.7092 43.4563 15.6255 43.2831 15.5328C43.1099 15.4403 42.9772 15.3478 42.8849 15.2549C42.7926 15.1624 42.7348 15.0986 42.7118 15.0638V19.3327H40.3489V7.42288C40.407 7.41152 40.4771 7.39987 40.559 7.38821C40.6291 7.37685 40.7108 7.3681 40.8041 7.36212C40.8975 7.35644 41.0084 7.35349 41.1367 7.35349C41.5216 7.35349 41.8484 7.41726 42.1169 7.54451C42.3852 7.67205 42.5547 7.88609 42.6247 8.18703ZM45.752 11.3996C45.752 11.0523 45.7232 10.7284 45.6656 10.4272C45.6081 10.1263 45.5131 9.86578 45.3806 9.64577C45.2482 9.42594 45.0695 9.25503 44.845 9.1334C44.6202 9.01189 44.3469 8.95119 44.0246 8.95119C43.5409 8.95119 43.2041 9.04395 43.0139 9.22894C42.824 9.41428 42.729 9.61702 42.729 9.8368V13.5184C42.821 13.6111 42.9849 13.7209 43.2211 13.8483C43.4573 13.9758 43.7306 14.0392 44.0417 14.0392C44.6291 14.0392 45.061 13.8079 45.3374 13.3447C45.6138 12.8817 45.752 12.2332 45.752 11.3996ZM50.0427 14.3866C49.9615 14.1552 49.9094 13.912 49.8864 13.6572C49.863 13.4027 49.8516 13.148 49.8516 12.893V4.83539C49.9325 4.82403 50.0194 4.81238 50.1122 4.80066C50.193 4.7893 50.2799 4.78066 50.3727 4.77463C50.4654 4.76895 50.5579 4.766 50.6507 4.766C50.8359 4.766 51.0214 4.78339 51.2067 4.81806C51.3918 4.85284 51.5598 4.92229 51.7106 5.02641C51.861 5.13059 51.9826 5.27257 52.0754 5.45189C52.168 5.63149 52.2144 5.86599 52.2144 6.15517V7.3881H54.6468V9.14215H52.2144V12.8454C52.2144 13.6529 52.5444 14.0566 53.2047 14.0566C53.3668 14.0566 53.5201 14.0307 53.6651 13.9785C53.8098 13.9264 53.9401 13.8686 54.056 13.8049C54.1717 13.7412 54.2732 13.6747 54.3601 13.6052C54.447 13.5356 54.5077 13.4836 54.5424 13.4489C54.7162 13.7038 54.8492 13.9244 54.942 14.1105C55.0346 14.2969 55.081 14.4718 55.081 14.6352C55.081 14.7873 55.0203 14.9364 54.8986 15.0824C54.7769 15.2284 54.6059 15.363 54.386 15.4856C54.1659 15.6082 53.8997 15.7075 53.5869 15.7835C53.2742 15.8595 52.9324 15.8976 52.5618 15.8976C51.8435 15.8976 51.2848 15.7585 50.8852 15.4808C50.4857 15.2028 50.2047 14.8381 50.0427 14.3866ZM60.631 14.1608C60.9214 14.1608 61.1772 14.1291 61.3982 14.0653C61.6189 14.0019 61.8164 13.9237 61.9908 13.831C62.1651 13.7385 62.3163 13.6372 62.4442 13.5271C62.572 13.4172 62.6882 13.3159 62.793 13.2231C62.9323 13.3967 63.0775 13.6198 63.2287 13.8916C63.3798 14.1639 63.4554 14.3866 63.4554 14.5602C63.4554 14.815 63.3105 15.0466 63.0212 15.2549C62.7779 15.4403 62.433 15.5995 61.9874 15.7324C61.5413 15.8654 61.0171 15.9321 60.4151 15.9321C59.8704 15.9321 59.3349 15.8627 58.808 15.7238C58.2809 15.5849 57.8117 15.3417 57.4008 14.9943C56.9894 14.6472 56.6564 14.1812 56.4017 13.5965C56.1469 13.0119 56.0195 12.274 56.0195 11.3823C56.0195 10.6529 56.1325 10.0251 56.3582 9.49817C56.5841 8.97148 56.8852 8.53441 57.2619 8.18709C57.638 7.83977 58.0637 7.58527 58.5387 7.42294C59.0135 7.26102 59.5 7.17985 59.9981 7.17985C60.6467 7.17985 61.1968 7.28137 61.6485 7.48375C62.1003 7.68643 62.4678 7.95856 62.7518 8.29997C63.0354 8.64149 63.241 9.03224 63.3685 9.47214C63.4958 9.91222 63.5596 10.3751 63.5596 10.8614V11.1045C63.5596 11.1973 63.5567 11.2955 63.5509 11.3997C63.545 11.504 63.5393 11.6054 63.5336 11.7036C63.5276 11.8022 63.5189 11.8802 63.5077 11.9381H58.3823C58.4288 12.5748 58.6263 13.1044 58.975 13.5271C59.3234 13.9498 59.8755 14.1608 60.631 14.1608ZM61.4227 10.6356C61.4227 10.0799 61.3148 9.62838 61.0993 9.28106C60.8838 8.9338 60.4963 8.76005 59.9375 8.76005C59.4596 8.76005 59.0782 8.9251 58.7929 9.25503C58.5073 9.58502 58.3649 10.0452 58.3649 10.6355L61.4227 10.6356ZM67.6715 8.23092C67.7408 8.12761 67.8335 8.01282 67.9494 7.88632C68.0651 7.75994 68.2071 7.64509 68.3751 7.54179C68.5429 7.43842 68.7282 7.35209 68.9311 7.28322C69.1335 7.21429 69.3508 7.17985 69.5826 7.17985C69.7216 7.17985 69.8693 7.19151 70.0256 7.21429C70.182 7.23736 70.3266 7.2805 70.4598 7.34346C70.5929 7.40671 70.7002 7.49268 70.7813 7.60179C70.8622 7.71089 70.903 7.84574 70.903 8.00639C70.903 8.25898 70.8391 8.54908 70.7118 8.87657C70.5842 9.20436 70.4571 9.48385 70.3297 9.71528C70.1325 9.55325 69.9357 9.42878 69.7389 9.34193C69.5419 9.25515 69.3102 9.21167 69.0439 9.21167C68.6849 9.21167 68.3838 9.31619 68.1406 9.52507C67.8972 9.73401 67.7757 9.98364 67.7757 10.2739V15.8956H65.413V7.42288C65.4707 7.41152 65.5402 7.39987 65.6214 7.38821C65.6908 7.37685 65.7719 7.3681 65.8646 7.36212C65.9572 7.35644 66.0671 7.35349 66.1947 7.35349C66.5652 7.35349 66.8866 7.42532 67.1589 7.56868C67.4309 7.71188 67.602 7.93276 67.6715 8.23092ZM74.3892 8.23092C74.4587 8.12761 74.5513 8.01282 74.6672 7.88632C74.7829 7.75994 74.9248 7.64509 75.0929 7.54179C75.2607 7.43842 75.446 7.35209 75.6488 7.28322C75.8513 7.21429 76.0685 7.17985 76.3003 7.17985C76.4392 7.17985 76.5869 7.19151 76.7433 7.21429C76.8996 7.23736 77.0443 7.2805 77.1776 7.34346C77.3107 7.40671 77.4178 7.49268 77.4992 7.60179C77.58 7.71089 77.6207 7.84574 77.6207 8.00639C77.6207 8.25898 77.5568 8.54908 77.4296 8.87657C77.3019 9.20436 77.1747 9.48385 77.0474 9.71528C76.8504 9.55325 76.6534 9.42878 76.4566 9.34193C76.2597 9.25515 76.028 9.21167 75.7617 9.21167C75.4027 9.21167 75.1015 9.31619 74.8583 9.52507C74.6151 9.73401 74.4935 9.98364 74.4935 10.2739V15.8956H72.1307V7.42288C72.1885 7.41152 72.258 7.39987 72.3392 7.38821C72.4087 7.37685 72.4897 7.3681 72.5824 7.36212C72.675 7.35644 72.7849 7.35349 72.9124 7.35349C73.2831 7.35349 73.6045 7.42532 73.8766 7.56868C74.1486 7.71188 74.3196 7.93276 74.3892 8.23092ZM85.6648 13.6224C85.6648 14.5371 85.7979 15.2028 86.0644 15.6196C85.8559 15.7004 85.6618 15.7584 85.4824 15.7931C85.3027 15.8279 85.1146 15.8452 84.9178 15.8452C84.5007 15.8452 84.1851 15.7642 83.9709 15.6021C83.7564 15.4402 83.6204 15.2087 83.5626 14.9075C83.3078 15.174 82.9719 15.3997 82.5549 15.585C82.138 15.7698 81.6281 15.8627 81.0261 15.8627C80.7133 15.8627 80.4007 15.8194 80.0878 15.7331C79.7752 15.6461 79.4911 15.505 79.2366 15.3091C78.9817 15.1127 78.7732 14.8501 78.6111 14.5212C78.4488 14.1923 78.368 13.7913 78.368 13.3182C78.368 12.7297 78.5095 12.2506 78.7936 11.8815C79.0772 11.512 79.4335 11.2207 79.8621 11.0071C80.2904 10.7938 80.7537 10.6469 81.252 10.5659C81.7498 10.4851 82.2075 10.4333 82.6245 10.4099C82.7635 10.3985 82.8994 10.3925 83.0328 10.3925H83.4063V10.0765C83.4063 9.63145 83.2873 9.31532 83.0501 9.12812C82.8124 8.94087 82.4274 8.84701 81.8947 8.84701C81.3967 8.84701 80.9537 8.92811 80.5657 9.09009C80.1775 9.25236 79.7983 9.43742 79.4277 9.64583C79.2654 9.44907 79.1349 9.23207 79.0368 8.99461C78.9383 8.7575 78.8891 8.58085 78.8891 8.46496C78.8891 8.30298 78.9787 8.14668 79.1584 7.99607C79.3379 7.8458 79.5841 7.70956 79.8968 7.58799C80.2096 7.46642 80.5684 7.36821 80.9739 7.29279C81.3793 7.2176 81.8079 7.17991 82.2596 7.17991C82.885 7.17991 83.4149 7.24368 83.8493 7.37094C84.2836 7.49848 84.6368 7.69518 84.909 7.96134C85.181 8.22785 85.3751 8.5605 85.4911 8.95988C85.6066 9.35932 85.6648 9.82549 85.6648 10.3578V13.6224ZM83.4409 11.6081H83.1977C83.1165 11.6081 83.0354 11.6141 82.9545 11.6255C82.6649 11.6488 82.3781 11.6835 82.0945 11.7296C81.8105 11.776 81.5587 11.8571 81.3388 11.9728C81.1187 12.0886 80.9392 12.2392 80.8002 12.4242C80.6612 12.6096 80.5917 12.847 80.5917 13.1363C80.5917 13.4605 80.6843 13.7353 80.8697 13.9611C81.0548 14.1869 81.3677 14.2998 81.8079 14.2998C82.0278 14.2998 82.2363 14.271 82.4334 14.2128C82.6302 14.1552 82.8039 14.0799 82.9545 13.9873C83.1048 13.8946 83.2239 13.7934 83.3107 13.6832C83.3975 13.5734 83.441 13.4722 83.441 13.3795L83.4409 11.6081Z" fill="white"/>
</g>
<defs>
<clipPath id="clip0_11777_6457">
<rect width="87" height="20" fill="white"/>
</clipPath>
</defs>
</svg>
