<svg width="24" height="26" viewBox="0 0 24 26" fill="none" xmlns="http://www.w3.org/2000/svg">
<path d="M13 7C13 8.10457 10.5376 9 7.5 9C4.46243 9 2 8.10457 2 7M13 7C13 5.89543 10.5376 5 7.5 5C4.46243 5 2 5.89543 2 7M13 7V11.4571C11.7785 11.824 11 12.3789 11 13M2 7V19C2 20.1046 4.46243 21 7.5 21C8.82963 21 10.0491 20.8284 11 20.5429V13M2 11C2 12.1046 4.46243 13 7.5 13C8.82963 13 10.0491 12.8284 11 12.5429M2 15C2 16.1046 4.46243 17 7.5 17C8.82963 17 10.0491 16.8284 11 16.5429M22 13C22 14.1046 19.5376 15 16.5 15C13.4624 15 11 14.1046 11 13M22 13C22 11.8954 19.5376 11 16.5 11C13.4624 11 11 11.8954 11 13M22 13V21C22 22.1046 19.5376 23 16.5 23C13.4624 23 11 22.1046 11 21V13M22 17C22 18.1046 19.5376 19 16.5 19C13.4624 19 11 18.1046 11 17" stroke="#257CFF" stroke-width="2" stroke-linecap="round" stroke-linejoin="round"/>
</svg>
