<svg width="96" height="20" viewBox="0 0 96 20" fill="none" xmlns="http://www.w3.org/2000/svg">
<g clip-path="url(#clip0_11777_6374)">
<mask id="mask0_11777_6374" style="mask-type:luminance" maskUnits="userSpaceOnUse" x="0" y="0" width="96" height="20">
<path d="M96 0H0V20H96V0Z" fill="white"/>
</mask>
<g mask="url(#mask0_11777_6374)">
<path d="M24.0803 8.97015L17.6073 2.48034C17.5029 2.38194 17.365 2.32715 17.2217 2.32715C17.0784 2.32715 16.9405 2.38194 16.8362 2.48034L15.5641 3.75574L20.765 8.97015C20.8159 9.02078 20.8563 9.08103 20.8838 9.14741C20.9114 9.21372 20.9256 9.2849 20.9256 9.35678C20.9256 9.42859 20.9114 9.49978 20.8838 9.56616C20.8563 9.63247 20.8159 9.69272 20.765 9.74334L15.4177 15.1045L16.6898 16.3799C16.7942 16.4783 16.9321 16.5331 17.0753 16.5331C17.2187 16.5331 17.3566 16.4783 17.4609 16.3799L24.0803 9.74334C24.1784 9.63865 24.2331 9.5004 24.2331 9.35678C24.2331 9.21309 24.1784 9.07484 24.0803 8.97015Z" fill="#9AA4B2"/>
<path d="M13.0528 2.95156L12.5827 2.48034C12.4784 2.38194 12.3405 2.32715 12.1972 2.32715C12.0539 2.32715 11.916 2.38194 11.8116 2.48034L10.5396 3.75574L11.3839 4.60224L13.0415 6.26422L14.6963 4.60224L13.0528 2.95156Z" fill="#CDD5DF"/>
<path d="M12.8951 12.5938L11.2403 14.2558L10.396 15.1023L11.6681 16.3776C11.7725 16.4761 11.9104 16.5308 12.0536 16.5308C12.1969 16.5308 12.3348 16.4761 12.4392 16.3776L12.9064 15.9064L14.564 14.2444L12.8951 12.5938Z" fill="#CDD5DF"/>
<path d="M15.7413 8.96991C15.8395 9.0746 15.8941 9.21285 15.8941 9.35654C15.8941 9.50016 15.8395 9.63841 15.7413 9.7431L12.896 12.593L14.5537 14.2549L19.0566 9.74029C19.1075 9.68966 19.1479 9.62941 19.1755 9.56304C19.203 9.49673 19.2172 9.42554 19.2172 9.35366C19.2172 9.28185 19.203 9.21066 19.1755 9.14429C19.1479 9.07797 19.1075 9.01772 19.0566 8.9671L14.7113 4.61328L13.0536 6.27523L15.7413 8.96991Z" fill="#CDD5DF"/>
<path d="M5.18394 9.12541L9.68687 4.6107L8.02925 2.94874L7.55642 2.48034C7.45206 2.38194 7.31417 2.32715 7.17086 2.32715C7.02761 2.32715 6.88972 2.38194 6.7853 2.48034L0.160339 9.12541C0.109454 9.17597 0.0690673 9.23622 0.0415062 9.30259C0.0139453 9.3689 -0.000244141 9.44009 -0.000244141 9.51197C-0.000244141 9.58384 0.0139453 9.65497 0.0415062 9.72134C0.0690673 9.78765 0.109454 9.8479 0.160339 9.89853L6.63332 16.3883C6.73774 16.4868 6.87563 16.5415 7.01888 16.5415C7.16219 16.5415 7.30009 16.4868 7.40444 16.3883L7.88007 15.9172L9.5377 14.2552L5.18394 9.89853C5.13305 9.8479 5.09266 9.78765 5.0651 9.72134C5.03755 9.65497 5.02336 9.58384 5.02336 9.51197C5.02336 9.44009 5.03755 9.3689 5.0651 9.30259C5.09266 9.23622 5.13305 9.17597 5.18394 9.12541Z" fill="white"/>
<path d="M10.2075 9.12559L12.1972 7.13346L10.5395 5.4715L9.69524 4.625L5.19232 9.13965C5.14144 9.19028 5.10105 9.25052 5.07349 9.31684C5.04593 9.38321 5.03174 9.4544 5.03174 9.52621C5.03174 9.59809 5.04593 9.66928 5.07349 9.73565C5.10105 9.80196 5.14144 9.86221 5.19232 9.91284L9.52924 14.2553L10.3735 13.4088L12.0312 11.7469L10.1963 9.90996C10.0981 9.80534 10.0434 9.66709 10.0434 9.5234C10.0434 9.37977 10.0981 9.24152 10.1963 9.13684" fill="white"/>
<path d="M10.2075 9.89904L12.0424 11.7359L14.0293 9.74385C14.0802 9.69323 14.1206 9.63298 14.1482 9.56666C14.1757 9.50029 14.1899 9.4291 14.1899 9.35723C14.1899 9.28541 14.1757 9.21423 14.1482 9.14785C14.1206 9.08154 14.0802 9.02129 14.0293 8.97066L12.1972 7.13379L10.2075 9.12585C10.1093 9.23054 10.0547 9.36879 10.0547 9.51248C10.0547 9.6561 10.1093 9.79435 10.2075 9.89904Z" fill="white"/>
<path d="M29.2709 7.59334C29.2893 6.8589 29.4349 6.13325 29.7015 5.44889C29.951 4.81818 30.3353 4.24992 30.8273 3.7841C31.3536 3.30274 31.9736 2.93575 32.6483 2.70622C33.4653 2.43737 34.3216 2.30859 35.1813 2.3253C36.1387 2.29427 37.0934 2.44358 37.9959 2.76548C38.643 3.005 39.2396 3.3639 39.7549 3.8236C40.1495 4.17582 40.4626 4.61012 40.6725 5.09618C40.8243 5.45058 40.9248 5.82496 40.9708 6.20792C40.9789 6.27852 40.9698 6.35009 40.9443 6.4164C40.9188 6.48277 40.8777 6.5419 40.8245 6.58884C40.7198 6.68421 40.5831 6.73659 40.4416 6.73559H38.8599C38.7365 6.74134 38.6149 6.7034 38.5165 6.62834C38.4404 6.56684 38.3781 6.4899 38.3336 6.40259C38.3055 6.35184 38.2379 6.23613 38.1282 6.05837C37.9831 5.84786 37.8043 5.66289 37.599 5.51096C37.3104 5.296 36.9918 5.12486 36.6533 5.00306C36.1824 4.83875 35.6854 4.76225 35.187 4.77733C34.3336 4.73479 33.4958 5.01812 32.8425 5.57022C32.5481 5.84007 32.3128 6.16825 32.1515 6.53396C31.9902 6.89971 31.9063 7.29502 31.9053 7.69496C31.8771 8.19152 31.8659 8.72484 31.8659 9.29202C31.8659 9.85915 31.8659 10.3925 31.9053 10.8891C31.9418 11.9726 32.2571 12.7598 32.8425 13.248C33.51 13.7641 34.3395 14.0242 35.1813 13.9816C35.6291 13.9851 36.0754 13.9321 36.5098 13.8236C36.8898 13.7304 37.2457 13.5573 37.554 13.3157C37.8563 13.0678 38.0915 12.7475 38.2379 12.3845C38.4119 11.9351 38.4952 11.4556 38.4828 10.9737V10.8072H36.0989C36.0294 10.8083 35.9604 10.7948 35.8965 10.7676C35.8325 10.7404 35.7749 10.7001 35.7274 10.6492C35.6777 10.6015 35.6385 10.544 35.6119 10.4805C35.5852 10.4169 35.5718 10.3485 35.5726 10.2796V8.88852C35.574 8.74877 35.6299 8.61509 35.7282 8.51602C35.8265 8.4169 35.9595 8.36021 36.0989 8.35802H40.6021C40.7415 8.36021 40.8745 8.4169 40.9728 8.51602C41.0711 8.61509 41.127 8.74877 41.1284 8.88852V11.0415C41.1365 11.7795 41.0107 12.5128 40.7569 13.2056C40.5131 13.8475 40.1283 14.4261 39.6311 14.8986C39.0988 15.4027 38.4655 15.7875 37.7735 16.0273C36.0885 16.556 34.2826 16.556 32.5976 16.0273C31.9255 15.8043 31.3092 15.4386 30.7907 14.9551C30.3045 14.4779 29.928 13.9001 29.6875 13.2621C29.4259 12.5697 29.2832 11.838 29.2653 11.0979C29.2653 10.8496 29.2428 10.5758 29.2371 10.2768C29.2315 9.97765 29.2371 9.66727 29.2371 9.35409C29.2371 9.0409 29.2371 8.73615 29.2371 8.43421C29.2371 8.13227 29.254 7.8699 29.2653 7.61027" fill="white"/>
<path d="M47.1454 8.20308C46.8148 8.19371 46.4858 8.25033 46.1773 8.36952C45.9278 8.46827 45.6995 8.61383 45.5046 8.79846C45.328 8.96646 45.1847 9.16658 45.0825 9.38815C44.9922 9.58327 44.9305 9.79046 44.8995 10.0033H49.3124C49.2842 9.79383 49.2352 9.58777 49.1661 9.38815C49.0931 9.16821 48.973 8.9669 48.8143 8.79846C48.6329 8.6104 48.413 8.46408 48.1698 8.36952C47.8425 8.24721 47.4945 8.19065 47.1454 8.20308ZM42.361 11.1404C42.3559 10.4381 42.4682 9.74002 42.6931 9.07496C42.8977 8.45296 43.2229 7.87758 43.65 7.38196C44.0702 6.90352 44.586 6.51896 45.1641 6.25327C45.7835 5.97576 46.4557 5.83618 47.1341 5.84414C47.8117 5.83545 48.4834 5.97206 49.1041 6.24481C49.6859 6.4989 50.209 6.87065 50.6408 7.33683C51.0641 7.79665 51.393 8.33546 51.6089 8.92258C51.8379 9.53321 51.9543 10.1805 51.9523 10.8328V11.7132C51.9501 11.8532 51.8936 11.9869 51.7949 12.0859C51.6961 12.1849 51.5628 12.2415 51.4232 12.2437H44.8995C44.8929 12.5192 44.9559 12.792 45.0825 13.0366C45.2068 13.2588 45.3777 13.4513 45.5834 13.6009C45.8 13.7616 46.0442 13.8811 46.3039 13.9536C46.5788 14.0304 46.8628 14.0693 47.1482 14.0693C47.4913 14.079 47.8339 14.0362 48.1641 13.9423C48.3955 13.8721 48.6133 13.7634 48.8087 13.6206C48.918 13.5361 49.0359 13.4633 49.1604 13.4034C49.2791 13.359 49.4054 13.3388 49.532 13.3441H51.0939C51.2368 13.3461 51.3737 13.4026 51.4766 13.5021C51.5285 13.5483 51.5688 13.6061 51.5941 13.6708C51.6196 13.7356 51.6295 13.8054 51.623 13.8746C51.5791 14.1306 51.475 14.3725 51.3191 14.58C51.0905 14.9107 50.8046 15.1975 50.4748 15.4265C50.0419 15.7283 49.568 15.9659 49.0675 16.132C48.4465 16.3351 47.7955 16.4305 47.1426 16.4141C46.467 16.4216 45.7969 16.2921 45.1725 16.0332C44.5906 15.7917 44.0696 15.4235 43.6472 14.9553C43.2205 14.4657 42.8952 13.896 42.6903 13.2793C42.4612 12.588 42.3489 11.8631 42.3582 11.1348" fill="white"/>
<path d="M56.6304 12.5509C56.6118 12.903 56.7275 13.2491 56.954 13.5188C57.1679 13.7614 57.5676 13.8828 58.1558 13.8828H59.3462C59.4856 13.8842 59.619 13.9402 59.7178 14.0387C59.8166 14.1373 59.8731 14.2707 59.8754 14.4104V15.7027C59.8732 15.8428 59.8167 15.9764 59.718 16.0754C59.6192 16.1745 59.4859 16.231 59.3462 16.2332H57.8997C56.6745 16.2332 55.7364 15.936 55.0853 15.3416C54.4343 14.7472 54.1059 13.8367 54.1003 12.6102V8.3974H52.8001C52.731 8.39834 52.6626 8.38471 52.5991 8.35753C52.5356 8.33028 52.4785 8.29009 52.4314 8.2394C52.3804 8.19253 52.34 8.13534 52.3129 8.07159C52.2857 8.0079 52.2724 7.93909 52.2738 7.86978V6.57465C52.2729 6.5054 52.2865 6.43678 52.3136 6.37309C52.3408 6.30946 52.3809 6.25221 52.4314 6.205C52.4789 6.15489 52.5361 6.11503 52.5995 6.08786C52.6629 6.06069 52.7311 6.04678 52.8001 6.04698H54.0919V2.85285C54.094 2.71359 54.1502 2.58064 54.2484 2.48216C54.3466 2.38367 54.4792 2.32738 54.6182 2.3252H56.1041C56.243 2.32738 56.3756 2.38367 56.4738 2.48216C56.5721 2.58064 56.6283 2.71359 56.6304 2.85285V6.04698H59.1633C59.2982 6.05481 59.4252 6.11359 59.5187 6.21148C59.6122 6.3094 59.6652 6.43915 59.6671 6.57465V7.86978C59.6649 8.00903 59.6087 8.14196 59.5105 8.24046C59.4123 8.33896 59.2797 8.39528 59.1408 8.3974H56.6079L56.6304 12.5509Z" fill="white"/>
<path d="M69.4679 11.1206L67.3172 5.53657L65.1697 11.1206H69.4679ZM68.3925 2.5202C68.4779 2.51395 68.564 2.52552 68.645 2.55417C68.726 2.58282 68.7996 2.62793 68.8626 2.68668C68.9885 2.83288 69.0839 3.00263 69.1437 3.18612L73.9287 15.5676C73.9418 15.6116 73.9481 15.6572 73.9481 15.703C73.9462 15.8431 73.8895 15.9767 73.791 16.0757C73.6925 16.1748 73.5591 16.2313 73.4194 16.2335H72.0119C71.914 16.2438 71.8149 16.2343 71.7207 16.2057C71.6266 16.1771 71.5387 16.13 71.4633 16.067C71.371 15.9741 71.2987 15.8638 71.2495 15.7425L70.4048 13.5698H64.2327L63.3881 15.7425C63.3388 15.8638 63.2665 15.9741 63.1743 16.067C63.0988 16.13 63.0109 16.1771 62.9168 16.2057C62.8227 16.2343 62.7235 16.2438 62.6257 16.2335H61.2183C61.0791 16.2306 60.9466 16.1737 60.8484 16.0748C60.7503 15.9758 60.6941 15.8426 60.692 15.703C60.6908 15.6571 60.6975 15.6113 60.7117 15.5676L65.4963 3.18612C65.5562 3.00263 65.6522 2.83288 65.7781 2.68668C65.8404 2.62793 65.9146 2.58282 65.9957 2.55417C66.0761 2.52552 66.1621 2.51395 66.2481 2.5202H68.3925Z" fill="white"/>
<path d="M82.3042 11.6876C82.3435 11.3237 82.3435 10.9567 82.3042 10.5928C82.2282 9.7463 81.9664 9.13118 81.5244 8.76155C81.0699 8.3833 80.4939 8.18287 79.9036 8.19724C79.3145 8.17862 78.7398 8.37974 78.2909 8.76155C78.0646 8.96937 77.882 9.21999 77.7529 9.49893C77.6239 9.77787 77.5516 10.0796 77.5391 10.3869C77.5092 10.634 77.4961 10.8829 77.4999 11.1317C77.4961 11.3807 77.5092 11.6296 77.5391 11.8767C77.5734 12.4892 77.8427 13.0647 78.2909 13.4822C78.7341 13.8766 79.3108 14.0865 79.9036 14.0691C80.4939 14.0835 81.0699 13.8831 81.5244 13.5048C81.9664 13.1351 82.2282 12.5229 82.3042 11.6735V11.6876ZM80.4946 16.4281C80.1299 16.432 79.7665 16.3932 79.4111 16.3124C79.1206 16.2473 78.8376 16.1527 78.5665 16.0302C78.3508 15.9214 78.1482 15.7889 77.9612 15.6351C77.8153 15.5194 77.6788 15.3919 77.5535 15.2542V19.4247C77.551 19.5647 77.4949 19.6983 77.3958 19.7974C77.2973 19.8964 77.1639 19.9529 77.0242 19.9551H75.5412C75.4016 19.9529 75.2682 19.8964 75.1697 19.7974C75.0706 19.6983 75.0145 19.5647 75.012 19.4247V6.57474C75.0151 6.43524 75.0718 6.3023 75.1703 6.20388C75.2688 6.10547 75.4022 6.04927 75.5412 6.04711H77.0242C77.1632 6.04927 77.2966 6.10547 77.3951 6.20388C77.4936 6.3023 77.5504 6.43524 77.5535 6.57474V7.02624C77.6788 6.88849 77.8153 6.76112 77.9612 6.6453C78.1519 6.4948 78.3589 6.36605 78.5777 6.26155C78.8488 6.13898 79.1319 6.04443 79.4224 5.97939C79.7777 5.89856 80.1411 5.85973 80.5058 5.8637C81.1161 5.85485 81.7201 5.9851 82.2731 6.24463C82.7867 6.48862 83.2455 6.83524 83.6208 7.26324C83.9986 7.69762 84.2965 8.19524 84.5022 8.73337C84.7161 9.28705 84.8382 9.87243 84.8619 10.4659C84.8763 10.6606 84.8819 10.8891 84.8819 11.1515C84.8819 11.4139 84.8819 11.6425 84.8619 11.8372C84.8382 12.4306 84.7161 13.016 84.5022 13.5697C84.2965 14.1077 83.9986 14.6054 83.6208 15.0398C83.2455 15.4677 82.7867 15.8144 82.2731 16.0584C81.7158 16.3157 81.1073 16.4421 80.4946 16.4281Z" fill="white"/>
<path d="M93.348 11.6876C93.3873 11.3237 93.3873 10.9567 93.348 10.5928C93.2695 9.74631 93.0108 9.13118 92.5657 8.76156C92.1119 8.38243 91.5352 8.18181 90.9449 8.19724C90.3558 8.17862 89.7817 8.37974 89.3322 8.76156C89.1059 8.96937 88.9233 9.21999 88.7942 9.49893C88.6652 9.77787 88.5929 10.0796 88.5804 10.3869C88.5524 10.6341 88.5387 10.8829 88.5412 11.1317C88.5387 11.3807 88.5518 11.6294 88.5804 11.8767C88.6147 12.4892 88.884 13.0647 89.3322 13.4822C89.7754 13.8766 90.3521 14.0865 90.9449 14.0691C91.5352 14.0845 92.1119 13.8839 92.5657 13.5048C93.0108 13.1352 93.2695 12.5229 93.348 11.6736V11.6876ZM91.5303 16.4139C91.1656 16.4177 90.8021 16.3789 90.4468 16.2982C90.1563 16.2327 89.8733 16.1382 89.6021 16.0161C89.384 15.9116 89.1783 15.7829 88.9887 15.6323C88.8423 15.5165 88.7045 15.3891 88.5779 15.2514V19.4247C88.5786 19.4942 88.5642 19.5632 88.5374 19.6272C88.5106 19.6912 88.4707 19.7491 88.4202 19.7971C88.3728 19.8474 88.3155 19.8873 88.2525 19.9145C88.189 19.9417 88.1204 19.9555 88.0518 19.9551H86.5657C86.426 19.9529 86.2933 19.8962 86.1948 19.7972C86.0969 19.6981 86.0408 19.5644 86.0396 19.4247V6.57474C86.0414 6.43549 86.0975 6.30256 86.196 6.20408C86.2939 6.10559 86.4267 6.0493 86.5657 6.04711H88.0518C88.1902 6.05 88.3224 6.10651 88.4208 6.20485C88.5187 6.30318 88.5748 6.43574 88.5779 6.57474V7.02624C88.7045 6.88856 88.8423 6.76118 88.9887 6.64531C89.1783 6.49481 89.384 6.36606 89.6021 6.26156C89.8733 6.13944 90.1563 6.04491 90.4468 5.97939C90.8021 5.89872 91.1656 5.85989 91.5303 5.86371C92.1412 5.85483 92.7465 5.98506 93.3006 6.24463C93.8137 6.48974 94.2719 6.83618 94.6484 7.26324C95.0249 7.69774 95.3222 8.19537 95.5267 8.73337C95.7412 9.28706 95.8627 9.87243 95.887 10.4659C95.9007 10.6606 95.9064 10.8891 95.9064 11.1515C95.9064 11.4139 95.9064 11.6425 95.887 11.8372C95.8627 12.4306 95.7412 13.016 95.5267 13.5697C95.3222 14.1076 95.0249 14.6053 94.6484 15.0398C94.2719 15.4669 93.8137 15.8133 93.3006 16.0584C92.7465 16.318 92.1412 16.4482 91.5303 16.4393" fill="white"/>
</g>
</g>
<defs>
<clipPath id="clip0_11777_6374">
<rect width="96" height="20" fill="white"/>
</clipPath>
</defs>
</svg>
