<svg width="19" height="19" viewBox="0 0 19 19" fill="none" xmlns="http://www.w3.org/2000/svg">
<path d="M13.0899 13.3561C13.7924 14.5527 14.4871 15.7358 15.1813 16.9176C12.1074 19.2276 7.32505 19.5068 3.78477 16.8466C-0.289326 13.7829 -0.958939 8.55533 1.22227 4.79231C3.73097 0.464021 8.42557 -0.493207 11.4482 0.208692C11.3665 0.383013 9.55614 4.06964 9.55614 4.06964C9.55614 4.06964 9.41302 4.07887 9.33206 4.08041C8.43863 4.11758 7.7732 4.32164 7.05997 4.68361C6.27746 5.08442 5.60687 5.66726 5.10682 6.3812C4.60676 7.09514 4.29246 7.91843 4.19139 8.77913C4.08593 9.652 4.20889 10.5369 4.54866 11.3501C4.83593 12.0377 5.2423 12.6483 5.78708 13.1638C6.62279 13.9554 7.61729 14.4456 8.77004 14.6079C9.86169 14.7617 10.9116 14.6094 11.8953 14.1241C12.2644 13.9424 12.5783 13.7416 12.9452 13.4663C12.992 13.4366 13.0335 13.3989 13.0899 13.3561Z" fill="white"/>
<path d="M13.0967 2.86139C12.9183 2.68912 12.753 2.53018 12.5885 2.37022C12.4903 2.27485 12.3957 2.17564 12.2952 2.08259C12.2591 2.049 12.2168 2.00312 12.2168 2.00312C12.2168 2.00312 12.251 1.93185 12.2657 1.90262C12.4581 1.52348 12.7598 1.24636 13.1176 1.02589C13.5132 0.780251 13.9742 0.655268 14.4422 0.66674C15.041 0.678276 15.5978 0.824655 16.0676 1.21893C16.4144 1.50989 16.5923 1.87904 16.6236 2.31971C16.6759 3.06314 16.3625 3.6325 15.7401 4.02985C15.3745 4.26365 14.9802 4.44438 14.5848 4.65843C14.3667 4.77661 14.1802 4.88044 13.9671 5.09424C13.7796 5.30881 13.7705 5.51107 13.7705 5.51107L16.6033 5.50748V6.74593H12.2307V6.62621C12.2139 6.01762 12.2863 5.44493 12.5702 4.89223C12.8313 4.38516 13.2372 4.01396 13.7248 3.72812C14.1003 3.50792 14.4957 3.32052 14.872 3.10134C15.1042 2.96624 15.2682 2.76808 15.2669 2.4807C15.2669 2.23409 15.0841 2.01491 14.8229 1.94646C14.2071 1.78342 13.5803 2.04362 13.2544 2.59683C13.2069 2.67758 13.1583 2.75782 13.0967 2.86139ZM18.5761 12.0399L16.1888 7.99309H11.4647L9.06201 12.0817H13.8209L16.1692 16.1093L18.5761 12.0399Z" fill="white"/>
</svg>
