<svg width="161" height="30" viewBox="0 0 161 30" fill="none" xmlns="http://www.w3.org/2000/svg">
<path d="M0.000244141 23.1701L0.902286 18.9049H12.6579C13.4436 18.9049 13.7637 18.6456 13.9383 17.8386L14.5784 14.8127C14.6075 14.6974 14.6075 14.5533 14.6075 14.4669C14.6075 14.0346 14.3747 13.8905 13.7637 13.8905H5.06332C3.31743 13.8905 2.53178 13.0836 2.53178 11.7291C2.53178 11.441 2.56088 11.1528 2.61908 10.8069L3.8121 5.15853C4.36496 2.56487 5.52889 1.35449 8.40961 1.35449H22.1439L21.271 5.53317H9.60263C8.90427 5.53317 8.67149 5.79254 8.4969 6.57063L7.88584 9.45248C7.85674 9.62539 7.82764 9.74066 7.82764 9.88476C7.82764 10.2306 8.03133 10.3747 8.5551 10.3747H17.4009C19.205 10.3747 19.9616 11.1816 19.9616 12.5649C19.9616 12.8242 19.9325 13.1412 19.8743 13.4582L18.594 19.4237C18.0411 22.0173 16.8481 23.2277 14.0255 23.2277H0.000244141V23.1701Z" fill="#257CFF"/>
<path d="M34.3358 23.17L36.78 11.6427C36.8091 11.4697 36.8382 11.3545 36.8382 11.268C36.8382 10.8934 36.5764 10.7493 36.0235 10.7493H29.2145C28.5744 10.7493 28.3125 10.951 28.1379 11.6427L25.6937 23.17H21.1252L26.0719 0H30.6403L28.7781 8.61671C29.6219 7.37752 30.6112 6.82997 32.0079 6.82997H39.2534C40.9993 6.82997 41.7849 7.37752 41.7849 8.78963C41.7849 9.13545 41.7558 9.56772 41.6685 10.0288L38.8751 23.17H34.3358Z" fill="#257CFF"/>
<path d="M69.1082 23.1701L69.9229 19.3085H75.3934C76.0335 19.3085 76.2663 19.1067 76.4409 18.4151L77.8667 11.7869C77.8958 11.6139 77.8958 11.4987 77.8958 11.3546C77.8958 10.9799 77.7212 10.8358 77.1975 10.8358H70.1266L65.9947 30.0001H61.4263L66.4021 6.83008H80.3401C82.2314 6.83008 82.9589 7.46409 82.9589 8.78974C82.9589 9.13556 82.9298 9.56783 82.8425 10.0289L80.7183 19.9713C80.2237 22.1903 78.9724 23.1701 76.8774 23.1701H69.1082Z" fill="#257CFF"/>
<path d="M87.2656 23.1706L85.1123 1.32617H90.2336L91.4848 17.2628L99.8651 1.32617H104.783L92.8524 23.1706H87.2656Z" fill="white"/>
<path d="M102.484 23.17L105.975 6.82997H110.544L107.052 23.17H102.484ZM106.412 4.89914L107.459 0H112.057L111.009 4.89914H106.412Z" fill="white"/>
<path d="M113.776 23.1701C111.914 23.1701 111.157 22.565 111.157 21.2393C111.157 20.8935 111.215 20.4612 111.332 19.9713L113.456 10.0289C113.922 7.83873 114.882 6.83008 117.268 6.83008H128.412C130.071 6.83008 130.74 7.43527 130.74 8.70328C130.74 9.0491 130.711 9.45256 130.624 9.88484L129.256 16.3113H118.257L118.81 13.6024H125.474L125.968 11.4122C125.997 11.2393 125.997 11.124 125.997 10.9799C125.997 10.6629 125.823 10.5188 125.299 10.5188H118.723C117.966 10.5188 117.821 10.7206 117.646 11.4122L116.104 18.4439C116.075 18.6456 116.046 18.7897 116.046 18.9338C116.046 19.3085 116.249 19.4237 116.802 19.4237H127.918L127.132 23.1413H113.776V23.1701Z" fill="white"/>
<path d="M146.597 23.1701L145.578 11.8445L139.322 23.1701H133.648L132.513 6.83008H137.547L137.984 18.5304L144.182 6.83008H149.565L150.438 18.4727L156.17 6.83008H161L152.387 23.1701H146.597Z" fill="white"/>
<path d="M57.3813 17.0607L55.3735 15.0723C56.0428 15.7639 56.7121 16.4267 57.3813 17.0607Z" fill="#257CFF"/>
<path d="M59.8258 6.8584H48.594C46.237 6.8584 45.2768 7.86705 44.8112 10.0572L42.687 19.9996C42.5997 20.4895 42.5125 20.893 42.5125 21.2676C42.5125 21.6134 42.5706 21.9305 42.687 22.161C44.5202 20.576 46.1497 18.7316 48.012 17.1754C48.7976 17.7518 49.4378 18.4722 49.9616 19.2792C48.5358 20.576 47.0518 21.844 45.6841 23.2273H56.3341C58.7201 23.2273 59.6513 22.2186 60.1459 20.0284L62.2701 10.0861C62.3574 9.59615 62.4447 9.19269 62.4447 8.81805C62.4156 7.46358 61.7172 6.8584 59.8258 6.8584ZM52.8714 21.5558C52.6677 21.7287 52.4931 21.9304 52.2894 22.1034C51.7657 21.4694 51.0091 20.9506 50.9218 20.0861C50.6599 18.2417 49.1759 16.599 47.3427 16.2532C46.4407 16.1379 45.8878 15.3887 45.2768 14.7835L50.1362 9.97079L50.1944 9.91316L50.2235 9.94198L55.4029 15.0717C56.0722 15.7345 56.7123 16.3973 57.4107 17.0601L52.8714 21.5558ZM57.789 16.6855L50.5726 9.53851L51.271 8.84687L58.4873 15.9939L57.789 16.6855ZM58.8656 15.6192L51.6493 8.47223L52.3476 7.78059L59.564 14.9276L58.8656 15.6192Z" fill="#257CFF"/>
<path d="M51.6491 16.8591C52.2438 16.8591 52.7258 16.3817 52.7258 15.7928C52.7258 15.204 52.2438 14.7266 51.6491 14.7266C51.0545 14.7266 50.5725 15.204 50.5725 15.7928C50.5725 16.3817 51.0545 16.8591 51.6491 16.8591Z" fill="#257CFF"/>
</svg>
