<svg width="34" height="34" viewBox="0 0 34 34" fill="none" xmlns="http://www.w3.org/2000/svg">
<path d="M5.27523 30.6796C2.27275 30.6796 1.08633 29.6224 1.06641 27.4669C1.06641 26.8677 1.20674 26.229 1.34531 25.4455L4.71742 9.54914C5.50269 6.04618 6.96293 4.41992 10.7507 4.41992L27.657 4.41992L32.3303 9.58219L29.0427 25.4837C28.3037 28.9867 26.7793 30.5999 23.0378 30.5999L5.27523 30.6796Z" fill="white"/>
<path d="M24.8465 20.7176L21.6357 17.5068C22.706 18.6236 23.7763 19.6939 24.8465 20.7176Z" fill="#257CFF"/>
<path d="M28.7495 4.24609H10.7879C7.0187 4.24609 5.48312 5.87475 4.73859 9.41124L1.34169 25.4651C1.20209 26.2561 1.0625 26.9076 1.0625 27.5125C1.0625 28.0709 1.15556 28.5828 1.34169 28.955C4.27326 26.3957 6.8791 23.4176 9.8572 20.9048C11.1136 21.8355 12.1373 22.9988 12.9749 24.3018C10.6948 26.3957 8.32162 28.4432 6.13458 30.6767H23.1656C26.9813 30.6767 28.4703 29.0481 29.2614 25.5116L32.6583 9.45778C32.7979 8.66672 32.9375 8.01525 32.9375 7.41032C32.891 5.22328 31.7742 4.24609 28.7495 4.24609ZM17.6282 27.9778C17.3025 28.257 17.0233 28.5828 16.6975 28.862C15.8599 27.8382 14.6501 27.0007 14.5105 25.6047C14.0917 22.6266 11.7185 19.9742 8.78696 19.4158C7.34444 19.2297 6.46031 18.0198 5.48312 17.0426L13.2541 9.27164L13.3472 9.17858L13.3937 9.22511L21.6765 17.508C22.7468 18.5782 23.7705 19.6485 24.8873 20.7187L17.6282 27.9778ZM25.4922 20.1138L13.9521 8.57364L15.0689 7.45686L26.609 18.997L25.4922 20.1138ZM27.214 18.3921L15.6738 6.85194L16.7906 5.73515L28.3308 17.2753L27.214 18.3921Z" fill="#257CFF"/>
<path d="M15.6709 20.3936C16.6218 20.3936 17.3927 19.6228 17.3927 18.6719C17.3927 17.721 16.6218 16.9502 15.6709 16.9502C14.7201 16.9502 13.9492 17.721 13.9492 18.6719C13.9492 19.6228 14.7201 20.3936 15.6709 20.3936Z" fill="#257CFF"/>
</svg>
