<svg width="125" height="14" viewBox="0 0 125 14" fill="none" xmlns="http://www.w3.org/2000/svg">
<g clip-path="url(#clip0_11777_6346)">
<path fill-rule="evenodd" clip-rule="evenodd" d="M113.767 1.21419C113.767 0.556361 114.307 0.0166016 114.966 0.0166016H123.809C124.468 0.0166016 125.008 0.556361 125.008 1.21419V5.54913C125.008 6.20696 124.468 6.74672 123.809 6.74672H122.888C122.23 6.74672 121.225 7.00817 120.642 7.32865L117.432 9.10817C116.858 9.42865 116.613 9.20094 116.883 8.60214L117.255 7.79251C117.525 7.19371 117.213 6.70455 116.554 6.70455H114.958C114.299 6.70455 113.758 6.1648 113.758 5.50696V1.21419" fill="white"/>
<path fill-rule="evenodd" clip-rule="evenodd" d="M113.775 12.4898C113.843 12.4898 113.902 12.4813 113.953 12.456C113.995 12.4307 114.02 12.3886 114.02 12.3042C114.02 12.262 114.012 12.2283 113.995 12.2114C113.978 12.1861 113.953 12.1693 113.927 12.1608C113.902 12.1524 113.868 12.144 113.834 12.1355C113.801 12.1355 113.767 12.1271 113.742 12.1271H113.53V12.4898H113.775ZM113.775 11.8741C113.961 11.8741 114.105 11.9163 114.198 11.9922C114.291 12.0681 114.341 12.1861 114.341 12.3295C114.341 12.456 114.307 12.5488 114.24 12.6163C114.172 12.6837 114.088 12.7259 113.986 12.7343L114.35 13.3331H113.995L113.649 12.7428H113.53V13.3331H113.209V11.8741H113.775ZM112.863 12.9789C112.914 13.097 112.973 13.1982 113.057 13.291C113.142 13.3753 113.243 13.4512 113.353 13.5018C113.471 13.5524 113.598 13.5777 113.733 13.5777C113.868 13.5777 113.995 13.5524 114.113 13.5018C114.231 13.4512 114.333 13.3837 114.409 13.291C114.493 13.2066 114.561 13.097 114.603 12.9789C114.654 12.8608 114.671 12.7343 114.671 12.6078C114.671 12.4729 114.645 12.3548 114.603 12.2367C114.552 12.1187 114.493 12.0175 114.409 11.9247C114.324 11.8404 114.223 11.7645 114.105 11.7139C113.986 11.6633 113.86 11.638 113.725 11.638C113.59 11.638 113.463 11.6633 113.345 11.7139C113.226 11.7645 113.125 11.8319 113.041 11.9247C112.956 12.009 112.888 12.1187 112.846 12.2367C112.796 12.3548 112.779 12.4813 112.779 12.6078C112.787 12.7428 112.812 12.8608 112.863 12.9789ZM112.483 12.0765C112.551 11.9078 112.652 11.7645 112.77 11.6464C112.888 11.5199 113.032 11.4271 113.201 11.3596C113.361 11.2922 113.539 11.25 113.733 11.25C113.919 11.25 114.096 11.2837 114.265 11.3512C114.426 11.4187 114.578 11.5199 114.696 11.638C114.823 11.7645 114.916 11.9078 114.983 12.0681C115.051 12.2283 115.093 12.4054 115.093 12.5994C115.093 12.7934 115.059 12.962 114.992 13.1307C114.924 13.2994 114.823 13.4343 114.704 13.5608C114.578 13.6789 114.434 13.7801 114.274 13.8476C114.113 13.9151 113.936 13.9488 113.742 13.9488C113.556 13.9488 113.378 13.9151 113.209 13.8476C113.041 13.7801 112.897 13.6874 112.779 13.5608C112.652 13.4428 112.559 13.2994 112.483 13.1307C112.416 12.9705 112.373 12.7934 112.373 12.5994C112.382 12.4223 112.416 12.2452 112.483 12.0765Z" fill="white"/>
<path fill-rule="evenodd" clip-rule="evenodd" d="M109.299 8.55185H107.348C107.204 8.55185 107.154 8.45908 107.154 8.35787L107.171 8.10486C107.204 7.5904 107.694 7.21089 108.336 7.21089C108.961 7.21089 109.459 7.58197 109.502 8.08799L109.519 8.34101C109.519 8.45908 109.476 8.55185 109.299 8.55185ZM108.26 5.16992C106.149 5.16992 104.645 6.68799 104.645 8.42534V10.7278C104.645 12.6591 106.081 14 108.26 14C109.443 14 110.296 13.5868 110.904 12.9964C111.191 12.7097 111.419 12.3723 111.622 12.035C111.731 11.8579 111.672 11.6555 111.571 11.6049L109.797 10.7109C109.687 10.6603 109.578 10.694 109.527 10.8543C109.282 11.4784 108.868 11.7651 108.26 11.7651C107.601 11.7651 107.128 11.3181 107.128 10.7446V10.3482C107.128 10.2217 107.179 10.1543 107.34 10.1543H111.655C111.765 10.1543 111.833 10.1037 111.833 9.97715V8.42534C111.841 6.70486 110.355 5.16992 108.26 5.16992Z" fill="white"/>
<path fill-rule="evenodd" clip-rule="evenodd" d="M100.532 7.37068C101.089 7.37068 101.495 7.7249 101.799 8.44177C101.85 8.56827 101.942 8.60201 102.069 8.55141L103.826 7.76707C103.936 7.71647 103.97 7.60683 103.919 7.46346C103.758 7.09237 103.581 6.74659 103.345 6.45984C102.753 5.6755 101.875 5.22852 100.515 5.22852C98.2938 5.22852 96.9509 6.56948 96.9509 8.5008V10.6767C96.9509 12.608 98.2938 13.9321 100.515 13.9321C101.765 13.9321 102.593 13.561 103.184 12.8948C103.488 12.5574 103.725 12.1442 103.919 11.6803C103.97 11.5369 103.936 11.4442 103.826 11.3936L102.069 10.5924C101.942 10.5418 101.858 10.5755 101.799 10.702C101.495 11.4189 101.081 11.79 100.532 11.79C99.8732 11.79 99.4425 11.3261 99.4425 10.7526V8.40803C99.434 7.83454 99.8648 7.37068 100.532 7.37068Z" fill="white"/>
<path fill-rule="evenodd" clip-rule="evenodd" d="M95.3717 5.42285H93.2433C93.1166 5.42285 93.0659 5.47345 93.0659 5.59996V13.553C93.0659 13.6795 93.1166 13.7301 93.2433 13.7301H95.3717C95.473 13.7301 95.5321 13.6795 95.5321 13.553V5.59996C95.5321 5.47345 95.4561 5.42285 95.3717 5.42285Z" fill="white"/>
<path fill-rule="evenodd" clip-rule="evenodd" d="M94.2904 1.91406C93.5979 1.91406 93.032 2.47912 93.032 3.17069C93.032 3.86226 93.5979 4.42732 94.2904 4.42732C94.983 4.42732 95.5489 3.86226 95.5489 3.17069C95.5489 2.47912 94.9914 1.91406 94.2904 1.91406Z" fill="white"/>
<path fill-rule="evenodd" clip-rule="evenodd" d="M91.9425 5.42285H89.6706C89.5777 5.42285 89.5101 5.47345 89.4763 5.56622L88.1334 9.41201C88.0658 9.60598 87.956 10.0698 87.9223 10.306H87.8716C87.8378 10.0698 87.7449 9.64815 87.6604 9.41201L86.2669 5.54936C86.2331 5.45659 86.1824 5.42285 86.0895 5.42285H83.8175C83.6571 5.42285 83.6064 5.53249 83.6571 5.67586L86.8581 13.612C86.8919 13.6963 86.9594 13.7385 87.0354 13.7385H88.6993C88.7922 13.7385 88.8598 13.7048 88.8935 13.612L92.1114 5.67586C92.1621 5.53249 92.1114 5.42285 91.9425 5.42285Z" fill="white"/>
<path fill-rule="evenodd" clip-rule="evenodd" d="M80.2112 10.643C80.2112 11.2334 79.7298 11.6803 79.1048 11.6803C78.4629 11.6803 78.0152 11.2334 78.0152 10.643V8.50082C78.0152 7.92733 78.4629 7.49721 79.1048 7.49721C79.7467 7.49721 80.2112 7.92733 80.2112 8.50082V10.643ZM82.5 2.4707H80.3885C80.3041 2.4707 80.2112 2.52131 80.2112 2.64781V5.13576C80.2112 5.40564 80.2619 5.9201 80.2619 5.9201C79.9071 5.59962 79.3159 5.42251 78.8852 5.42251C76.9342 5.42251 75.5237 6.72974 75.5237 8.67793V10.4828C75.5237 12.5574 76.7399 13.7382 78.9274 13.7382C79.4257 13.7382 80.0169 13.5779 80.397 13.2574C80.5068 13.1647 80.6335 13.1984 80.6335 13.3418V13.6117C80.6335 13.6791 80.6842 13.7382 80.7771 13.7382H82.5085C82.6183 13.7382 82.6858 13.6876 82.6858 13.5611V2.64781C82.6774 2.52974 82.6098 2.4707 82.5 2.4707Z" fill="white"/>
<path fill-rule="evenodd" clip-rule="evenodd" d="M70.8698 9.89239H69.7803C69.6029 9.89239 69.5269 9.78275 69.5691 9.68155L69.9408 8.23094C70.1181 7.57311 70.2617 6.78034 70.2955 6.31649H70.3715C70.4053 6.78034 70.5151 7.56468 70.6924 8.23094L71.0725 9.68155C71.1063 9.78275 71.0303 9.89239 70.8698 9.89239ZM71.3006 2.59721C71.2668 2.50444 71.2076 2.4707 71.1232 2.4707H69.5269C69.4171 2.4707 69.3833 2.50444 69.3495 2.59721L65.8276 13.502C65.7769 13.6454 65.8445 13.7382 66.0049 13.7382H68.26C68.3529 13.7382 68.3867 13.7044 68.4205 13.6117L68.9357 11.984C68.9695 11.8912 69.0033 11.8743 69.1299 11.8743H71.4948C71.6215 11.8743 71.6553 11.8912 71.6891 11.984L72.1874 13.6117C72.2212 13.696 72.2634 13.7382 72.3647 13.7382H74.6367C74.8141 13.7382 74.8732 13.6454 74.8141 13.502L71.3006 2.59721Z" fill="white"/>
<path fill-rule="evenodd" clip-rule="evenodd" d="M59.4003 8.55185H57.4493C57.3057 8.55185 57.255 8.45908 57.255 8.35787L57.2719 8.10486C57.3057 7.5904 57.7956 7.21089 58.4375 7.21089C59.0625 7.21089 59.5692 7.58197 59.603 8.08799L59.6199 8.34101C59.6114 8.45908 59.5777 8.55185 59.4003 8.55185ZM58.3614 5.16992C56.25 5.16992 54.7466 6.68799 54.7466 8.42534V10.7278C54.7466 12.6591 56.1739 14 58.3614 14C59.5439 14 60.4054 13.5868 61.0135 12.9964C61.3006 12.7097 61.5371 12.3723 61.7314 12.035C61.8412 11.8579 61.7821 11.6555 61.6807 11.6049L59.9071 10.7109C59.7973 10.6603 59.6959 10.694 59.6368 10.8543C59.3834 11.4784 58.978 11.7651 58.3699 11.7651C57.7111 11.7651 57.2381 11.3181 57.2381 10.7446V10.3482C57.2381 10.2217 57.2888 10.1543 57.4577 10.1543H61.7736C61.8834 10.1543 61.951 10.1037 61.951 9.97715V8.42534C61.9425 6.70486 60.456 5.16992 58.3614 5.16992Z" fill="white"/>
<path fill-rule="evenodd" clip-rule="evenodd" d="M53.6739 5.45659C53.5472 5.43972 53.4037 5.42285 53.2094 5.42285C52.5337 5.42285 51.8834 5.74333 51.5962 6.09755C51.5033 6.18189 51.3597 6.17345 51.3597 6.01321V5.59996C51.3597 5.47345 51.3091 5.42285 51.1824 5.42285H49.4847C49.3749 5.42285 49.3074 5.47345 49.3074 5.59996V13.553C49.3074 13.6795 49.3749 13.7301 49.4847 13.7301H51.5962C51.706 13.7301 51.7736 13.6795 51.7736 13.553V8.81321C51.7736 8.18912 52.2212 7.74213 52.8462 7.74213C53.1165 7.74213 53.3445 7.77586 53.5641 7.8349C53.7246 7.86863 53.8344 7.81803 53.8344 7.65779V5.63369C53.8344 5.54936 53.7753 5.47345 53.6739 5.45659Z" fill="white"/>
<path fill-rule="evenodd" clip-rule="evenodd" d="M44.1807 11.7984H43.5219C43.1418 11.7984 42.9307 11.5623 42.9307 11.0647C42.9307 10.7104 43.1841 10.4574 43.5388 10.4574H45.0591C45.1689 10.4574 45.2026 10.6514 45.2026 10.7104C45.1604 11.3683 44.6621 11.7984 44.1807 11.7984ZM44.13 5.22852C43.0236 5.22852 42.1959 5.58273 41.5878 6.13936C41.2499 6.44297 40.9797 6.79719 40.7685 7.19358C40.6587 7.37068 40.7179 7.57309 40.8192 7.6237L42.5929 8.51767C42.7026 8.56827 42.804 8.53454 42.8631 8.3743C43.1165 7.7502 43.5219 7.46346 44.13 7.46346C44.7888 7.46346 45.2026 7.91044 45.2026 8.48394V8.57671C45.2026 8.70321 45.152 8.77068 45.0253 8.77068H43.4459C41.8749 8.77068 40.5996 9.63093 40.5996 11.1321V11.3092C40.5996 12.8273 41.7483 13.7382 43.2854 13.7382H43.9104C44.3918 13.7382 44.9324 13.5779 45.304 13.2743C45.3716 13.2237 45.4645 13.2406 45.4814 13.2912L45.532 13.5948C45.5489 13.6876 45.6249 13.7382 45.7263 13.7382H47.4831C47.5929 13.7382 47.6604 13.6876 47.6604 13.561V8.5008C47.6689 6.56948 46.3091 5.22852 44.13 5.22852Z" fill="white"/>
<path fill-rule="evenodd" clip-rule="evenodd" d="M39.8818 5.42285H37.7196C37.6098 5.42285 37.5423 5.47345 37.5254 5.56622L36.723 8.92285C36.6301 9.30237 36.5625 9.83369 36.5456 10.2132H36.4865C36.4696 9.83369 36.3936 9.35297 36.2923 8.92285L35.4814 5.56622C35.4646 5.47345 35.3885 5.42285 35.2872 5.42285H33.5135C33.4037 5.42285 33.3531 5.47345 33.3362 5.56622L32.5507 8.90598C32.4578 9.27707 32.3902 9.76622 32.3564 10.1204H32.3058C32.2889 9.76622 32.2213 9.27707 32.1284 8.90598L31.2923 5.56622C31.2754 5.47345 31.2247 5.42285 31.1149 5.42285H28.8936C28.7331 5.42285 28.674 5.51562 28.7331 5.659L31.2585 13.612C31.2923 13.6963 31.3514 13.7385 31.4358 13.7385H33.0152C33.125 13.7385 33.1757 13.7048 33.1926 13.612L34.1808 9.9096C34.2906 9.49635 34.375 8.80478 34.375 8.80478H34.4257C34.4257 8.80478 34.5186 9.50478 34.62 9.9096L35.5828 13.5867C35.5997 13.6795 35.6504 13.7301 35.7602 13.7301H37.3142C37.4071 13.7301 37.4578 13.6963 37.4916 13.6036L40.0507 5.65056C40.1014 5.53249 40.0423 5.42285 39.8818 5.42285Z" fill="white"/>
<path fill-rule="evenodd" clip-rule="evenodd" d="M27.8124 5.42255H26.6131C26.4526 5.42255 26.402 5.37195 26.402 5.24544V4.11532C26.402 3.98881 26.3682 3.95508 26.2415 3.95508H25.1097C25.0422 3.95508 24.9493 3.98881 24.8986 4.04785L22.6604 6.28279V7.49725C22.6604 7.62375 22.7111 7.65749 22.8378 7.65749H23.733C23.8935 7.65749 23.9442 7.73339 23.9442 7.85146V10.643C23.9442 12.7852 25.2871 13.8985 26.9847 13.8985H27.7364C27.8969 13.8985 27.9729 13.831 27.9729 13.7045V11.8659C27.9729 11.7563 27.9222 11.6888 27.7955 11.6888H27.4915C26.7567 11.6888 26.402 11.2418 26.402 10.4744V7.85146C26.402 7.72496 26.4526 7.65749 26.6131 7.65749H27.8124C27.9391 7.65749 27.9729 7.62375 27.9729 7.49725V5.59966C27.9729 5.47315 27.9391 5.42255 27.8124 5.42255Z" fill="white"/>
<path fill-rule="evenodd" clip-rule="evenodd" d="M22.4662 2.38627C22.1621 2.3188 21.6638 2.25977 21.1993 2.25977C18.5472 2.25977 17.5506 4.09832 17.5506 5.54892V5.99591C17.5506 6.12242 17.4999 6.17302 17.3564 6.17302H16.9425C16.8327 6.17302 16.7651 6.22362 16.7651 6.35013V8.23085C16.7651 8.35736 16.8327 8.40796 16.9425 8.40796H17.3564C17.5168 8.40796 17.5506 8.45856 17.5506 8.58507V13.5525C17.5506 13.679 17.6013 13.7296 17.728 13.7296H19.8395C19.9662 13.7296 20.0168 13.679 20.0168 13.5525V8.58507C20.0168 8.45856 20.0675 8.40796 20.2111 8.40796H21.3682C21.4949 8.40796 21.5455 8.35736 21.5455 8.23085V6.35013C21.5455 6.22362 21.4949 6.17302 21.3682 6.17302H20.2026C20.0591 6.17302 20.0084 6.12242 20.0084 5.99591V5.51519C20.0084 4.89109 20.456 4.49471 21.1317 4.49471C21.3682 4.49471 21.6131 4.52844 21.8074 4.58748C21.9341 4.62121 22.0016 4.58748 22.0439 4.47784L22.6013 2.63928C22.6435 2.51278 22.6097 2.42001 22.4662 2.38627Z" fill="white"/>
<path fill-rule="evenodd" clip-rule="evenodd" d="M13.2093 10.7442C13.2093 11.3177 12.7447 11.7815 12.1197 11.7815C11.461 11.7815 10.988 11.3177 10.988 10.7442V8.40803C10.988 7.85141 11.4525 7.37068 12.1197 7.37068C12.7447 7.37068 13.2093 7.83454 13.2093 8.40803V10.7442ZM12.1197 5.22852C9.93225 5.22852 8.50488 6.56948 8.50488 8.5008V10.6767C8.50488 12.608 9.93225 13.9321 12.1197 13.9321C14.265 13.9321 15.7008 12.6249 15.7008 10.6767V8.5008C15.7008 6.54418 14.265 5.22852 12.1197 5.22852Z" fill="white"/>
<path fill-rule="evenodd" clip-rule="evenodd" d="M4.66209 7.00796C3.67392 6.63687 2.61818 6.36699 2.61818 5.56579C2.61818 4.92483 3.09959 4.49471 3.72459 4.49471H3.99486C4.60297 4.49471 5.01682 4.78145 5.2702 5.40555C5.32088 5.56579 5.43068 5.59952 5.54047 5.54892L7.31412 4.65495C7.42392 4.60434 7.47459 4.40193 7.3648 4.22483C7.22122 3.95495 7.04385 3.6935 6.82426 3.45736C6.19926 2.75736 5.30399 2.25977 3.99486 2.25977H3.72459C1.48642 2.25977 0.109729 3.58386 0.109729 5.59952C0.109729 7.65736 1.43574 8.42483 3.0827 9.08266C4.15534 9.51278 5.08439 9.74049 5.08439 10.6345C5.08439 11.3682 4.51007 11.6887 3.86818 11.6887H3.42054C2.81243 11.6887 2.39858 11.4019 2.15365 10.7778C2.10297 10.6176 1.99318 10.5839 1.88338 10.6345L0.109729 11.5284C-6.77991e-05 11.579 -0.0507435 11.7815 0.0590538 11.9586C0.219527 12.2453 0.413784 12.5321 0.65027 12.7851C1.25838 13.4598 2.15365 13.9236 3.42054 13.9236H3.99486C6.26682 13.9236 7.59284 12.6164 7.59284 10.6007C7.59284 8.5176 6.35973 7.67422 4.66209 7.00796Z" fill="white"/>
</g>
<defs>
<clipPath id="clip0_11777_6346">
<rect width="125" height="14" fill="white"/>
</clipPath>
</defs>
</svg>
