<svg width="23" height="24" viewBox="0 0 23 24" fill="none" xmlns="http://www.w3.org/2000/svg">
<path fill-rule="evenodd" clip-rule="evenodd" d="M8.98351 0.479101C10.5791 -0.1597 12.4206 -0.1597 14.0167 0.479101C14.2175 0.559817 14.3741 0.723146 14.4454 0.92832C14.4992 1.08283 14.5003 1.24873 14.4523 1.40195C15.802 2.14169 16.8107 3.35976 17.2833 4.80332C17.4593 4.79635 17.6356 4.83138 17.797 4.91562C18.0437 5.0439 18.2251 5.26037 18.3087 5.525C18.3917 5.78903 18.3681 6.06994 18.2404 6.31601C18.1126 6.56204 17.8969 6.743 17.6329 6.82676C17.5513 6.85244 17.4637 6.87535 17.38 6.9V8.12266C17.3799 8.63997 16.9695 9.06091 16.465 9.06113H16.4591C16.0792 10.2904 15.3415 11.4991 14.3605 12.3424L14.9396 13.9654L15.2452 13.7262C15.3231 13.6658 15.4251 13.6468 15.5187 13.6725C15.6132 13.699 15.6899 13.7698 15.7247 13.8619L16.1251 14.9293L19.1124 15.9508C20.6672 16.4826 21.8334 17.8156 22.1554 19.4293L22.9943 23.6295C23.0124 23.7205 22.9882 23.8148 22.9298 23.8863C22.8709 23.9579 22.7837 23.9995 22.6915 23.9996H0.30871C0.216142 23.9996 0.128239 23.9581 0.069452 23.8863C0.0110578 23.8148 -0.0120206 23.7205 0.00597548 23.6295L0.843866 19.4293C1.16584 17.8151 2.33219 16.4822 3.88683 15.9508L6.87512 14.9293L7.27551 13.8619C7.31013 13.7699 7.38608 13.6991 7.48058 13.6725C7.57404 13.6467 7.6772 13.6655 7.755 13.7262L8.06066 13.9654L8.63976 12.3434C7.65841 11.4999 6.92121 10.2904 6.54113 9.06113C6.04252 9.09365 5.62035 8.64194 5.62023 8.12266V6.9C5.53627 6.87529 5.44817 6.8525 5.36633 6.82676C5.10255 6.74325 4.88677 6.56237 4.7589 6.31601C4.63138 6.06986 4.60701 5.78839 4.69055 5.52402C4.77409 5.25926 4.95632 5.04334 5.20226 4.91562C5.36363 4.83215 5.54003 4.79656 5.71691 4.80332C6.18985 3.35966 7.19811 2.14189 8.54797 1.40195C8.49943 1.24927 8.50119 1.08284 8.5548 0.92832C8.6262 0.723186 8.78236 0.559574 8.98351 0.479101ZM4.08703 16.5357C2.73972 16.9965 1.72864 18.1517 1.44933 19.5504L0.685663 23.3805H3.97766V21.5943C3.97775 21.4235 4.11574 21.2849 4.28625 21.2848C4.45681 21.2848 4.59475 21.4235 4.59484 21.5943V23.3805H10.9484L6.3009 15.7789L4.08703 16.5357ZM12.0509 23.3805H18.4044V21.5943C18.4045 21.4235 18.5426 21.2849 18.713 21.2848C18.8835 21.2848 19.0215 21.4235 19.0216 21.5943V23.3805H22.3146L21.5499 19.5504C21.2706 18.1518 20.2604 16.9965 18.9132 16.5357L16.6984 15.7789L12.0509 23.3805ZM11.0118 20.0846V22.2994L11.5001 23.0973L11.9816 22.3102V20.0846H11.0118ZM17.381 21.0221C17.5515 21.0221 17.6895 21.1607 17.6896 21.3316C17.6896 21.5026 17.5515 21.6412 17.381 21.6412H14.8361C14.6656 21.641 14.5275 21.5025 14.5275 21.3316C14.5275 21.1609 14.6657 21.0223 14.8361 21.0221H17.381ZM13.5646 18.2926C13.5043 18.3615 13.4184 18.398 13.3321 18.398C13.2803 18.398 13.2285 18.3847 13.1808 18.358L13.1134 18.3209V19.775C13.1133 19.9459 12.9756 20.0846 12.8048 20.0846H12.5987V21.3004L16.0997 15.5748L15.9845 15.5357L13.5646 18.2926ZM6.90051 15.5748L10.3946 21.2896V20.0846H10.1945C10.0238 20.0846 9.88591 19.9459 9.88586 19.775V18.3209L9.81848 18.358C9.77114 18.3848 9.71892 18.398 9.66711 18.398C9.58089 18.398 9.49595 18.3615 9.43566 18.2926L7.01476 15.5357L6.90051 15.5748ZM10.503 18.5396V19.4654H12.4962V18.5396H10.503ZM10.5919 17.9205H12.4073L11.5001 17.4068L10.5919 17.9205ZM7.46594 15.1129L9.73351 17.6959L10.9454 17.0104L8.00305 14.7066C8.00086 14.7048 7.99836 14.7026 7.99621 14.7008L7.70519 14.4732L7.46594 15.1129ZM15.004 14.7008C15.0013 14.7032 14.9979 14.7054 14.9952 14.7076L12.0538 17.0104L13.2667 17.6959L15.5333 15.1129L15.2941 14.4732L15.004 14.7008ZM13.8439 12.735C13.1491 13.1995 12.3587 13.4849 11.5001 13.485C10.6412 13.485 9.85025 13.1994 9.15539 12.735L8.57336 14.3678L11.5001 16.6588L14.4269 14.3668L13.8439 12.735ZM16.7618 7.06797C15.217 7.4517 13.3875 7.66169 11.5001 7.66172C9.6125 7.66172 7.78226 7.45177 6.23742 7.06797V8.12266C6.23729 8.34031 6.47381 8.48959 6.64562 8.42148C6.72825 8.38896 6.82054 8.39268 6.89953 8.43223C6.97841 8.47206 7.03678 8.5437 7.05969 8.62949C7.39806 9.90296 8.15722 11.1827 9.18469 11.9977C9.19798 12.0074 9.21138 12.0171 9.22277 12.0289C9.88517 12.5431 10.657 12.8658 11.5001 12.8658C12.3437 12.8657 13.1149 12.5427 13.7775 12.0279C13.7881 12.017 13.8002 12.0083 13.8126 11.9986C14.8411 11.184 15.6019 9.90368 15.9405 8.62949C15.9634 8.54362 16.0215 8.47204 16.1007 8.43223C16.18 8.39278 16.2717 8.38911 16.3536 8.42148C16.5234 8.49068 16.7619 8.34111 16.7618 8.12266V7.06797ZM5.67687 5.41758C5.61099 5.41765 5.54562 5.43356 5.48547 5.46445C5.38612 5.51625 5.31344 5.60417 5.27941 5.71152C5.24606 5.81814 5.25523 5.93154 5.30676 6.03086C5.3583 6.13007 5.44565 6.20334 5.55187 6.23691C7.19388 6.75732 9.30667 7.04355 11.5001 7.04355C13.6934 7.04352 15.8056 6.75703 17.4474 6.23691C17.5539 6.20309 17.6411 6.12999 17.6925 6.03086C17.7441 5.93179 17.7535 5.81814 17.7198 5.71152C17.6861 5.60467 17.6134 5.51651 17.5138 5.46445C17.4147 5.41273 17.302 5.40316 17.1964 5.43711C15.6328 5.93224 13.6101 6.20465 11.5001 6.20469C9.38989 6.20469 7.36653 5.93202 5.80383 5.43711C5.76237 5.42394 5.71922 5.41758 5.67687 5.41758ZM13.7872 1.05332C12.3376 0.473102 10.6626 0.473172 9.21301 1.05332C9.16479 1.07257 9.14506 1.11108 9.13781 1.13242C9.13029 1.15324 9.12201 1.19488 9.14758 1.23984L9.22863 1.3834L9.76281 2.30723C9.84812 2.45487 9.79787 2.64372 9.65051 2.7291C9.60205 2.75767 9.54856 2.77104 9.49621 2.77109C9.3898 2.77109 9.28592 2.71588 9.22863 2.6168L8.84484 1.95273C7.65122 2.60793 6.75221 3.67369 6.3214 4.94297C7.77614 5.35721 9.59622 5.58555 11.5001 5.58555C13.4035 5.58551 15.2226 5.35711 16.6779 4.94297C16.2471 3.67399 15.349 2.60819 14.1554 1.95273L13.7716 2.6168C13.7142 2.71589 13.6104 2.77104 13.504 2.77109C13.4516 2.77109 13.3983 2.75768 13.3497 2.7291C13.202 2.64376 13.1518 2.45501 13.2374 2.30723L13.7706 1.3834L13.8527 1.23984C13.8782 1.19526 13.8697 1.15352 13.8624 1.13242C13.8552 1.11108 13.8355 1.07257 13.7872 1.05332Z" fill="white"/>
</svg>
