<svg width="1280" height="185" viewBox="0 0 1280 185" fill="none" xmlns="http://www.w3.org/2000/svg">
<path d="M0.00146484 184.588L7.17298 150.609H100.634C106.88 150.609 109.425 148.543 110.813 142.115L115.902 118.008C116.134 117.09 116.134 115.942 116.134 115.253C116.134 111.809 114.283 110.661 109.425 110.661H40.2545C26.3741 110.661 20.128 104.233 20.128 93.4423C20.128 91.1465 20.3593 88.8506 20.822 86.0956L30.3069 41.0965C34.7023 20.4337 43.9559 10.791 66.8585 10.791H176.051L169.11 44.0811H76.3434C70.7913 44.0811 68.9406 46.1474 67.5525 52.3463L62.6944 75.305C62.4631 76.6825 62.2317 77.6008 62.2317 78.7488C62.2317 81.5038 63.8511 82.6518 68.0152 82.6518H138.342C152.685 82.6518 158.7 89.0802 158.7 100.1C158.7 102.167 158.469 104.692 158.006 107.218L147.827 154.742C143.432 175.405 133.947 185.048 111.507 185.048H0.00146484V184.588Z" fill="#202939"/>
<path d="M272.981 184.588L292.413 92.7531C292.645 91.3756 292.876 90.4572 292.876 89.7684C292.876 86.7838 290.794 85.6359 286.399 85.6359H232.265C227.176 85.6359 225.094 87.243 223.706 92.7531L204.273 184.588H167.953L207.281 0H243.601L228.795 68.6465C235.504 58.7742 243.369 54.4121 254.474 54.4121H312.077C325.958 54.4121 332.204 58.7743 332.204 70.024C332.204 72.7791 331.972 76.2228 331.278 79.8962L309.07 184.588H272.981Z" fill="#202939"/>
<path d="M549.431 184.588L555.909 153.823H599.4C604.49 153.823 606.341 152.216 607.729 146.706L619.064 93.9011C619.296 92.5236 619.296 91.6052 619.296 90.4573C619.296 87.4727 617.908 86.3247 613.743 86.3247H557.528L524.678 239H488.358L527.917 54.4121H638.728C653.765 54.4121 659.549 59.4631 659.549 70.0241C659.549 72.7791 659.317 76.2229 658.623 79.8963L641.736 159.104C637.803 176.782 627.855 184.588 611.199 184.588H549.431Z" fill="#202939"/>
<path d="M693.788 184.588L676.669 10.5605H717.384L727.332 137.522L793.958 10.5605H833.054L738.205 184.588H693.788Z" fill="#202939"/>
<path d="M814.776 184.588L842.537 54.4121H878.857L851.097 184.588H814.776ZM846.007 39.0298L854.335 0H890.887L882.559 39.0298H846.007Z" fill="#202939"/>
<path d="M904.555 184.588C889.749 184.588 883.734 179.767 883.734 169.206C883.734 166.451 884.197 163.007 885.122 159.104L902.01 79.8963C905.711 62.4477 913.346 54.4121 932.315 54.4121H1020.92C1034.1 54.4121 1039.43 59.2334 1039.43 69.3353C1039.43 72.0903 1039.19 75.3045 1038.5 78.7483L1027.63 129.946H940.181L944.576 108.365H997.553L1001.49 90.9164C1001.72 89.5389 1001.72 88.6206 1001.72 87.4726C1001.72 84.9472 1000.33 83.7993 996.165 83.7993H943.882C937.868 83.7993 936.711 85.4063 935.323 90.9164L923.062 146.936C922.83 148.543 922.599 149.691 922.599 150.839C922.599 153.823 924.218 154.742 928.614 154.742H1016.99L1010.74 184.358H904.555V184.588Z" fill="#202939"/>
<path d="M1165.49 184.588L1157.39 94.3602L1107.65 184.588H1062.54L1053.52 54.4121H1093.54L1097.01 147.624L1146.29 54.4121H1189.09L1196.03 147.165L1241.6 54.4121H1280L1211.53 184.588H1165.49Z" fill="#202939"/>
<path d="M456.199 135.916L440.237 120.074C445.558 125.584 450.878 130.865 456.199 135.916Z" fill="#202939"/>
<path d="M475.634 54.6406H386.337C367.598 54.6406 359.964 62.6762 356.263 80.1248L339.375 159.332C338.681 163.235 337.987 166.449 337.987 169.434C337.987 172.189 338.45 174.715 339.375 176.551C353.949 163.924 366.904 149.23 381.71 136.833C387.956 141.424 393.046 147.164 397.21 153.593C385.874 163.924 374.076 174.026 363.203 185.046H447.873C466.843 185.046 474.246 177.011 478.179 159.562L495.066 80.3544C495.76 76.4514 496.454 73.2371 496.454 70.2525C496.223 59.4619 490.671 54.6406 475.634 54.6406ZM420.344 171.73C418.724 173.108 417.336 174.715 415.717 176.092C411.553 171.041 405.538 166.909 404.844 160.021C402.762 145.327 390.964 132.241 376.389 129.486C369.218 128.568 364.822 122.598 359.964 117.777L398.598 79.436L399.061 78.9769L399.292 79.2065L440.47 120.073C445.791 125.353 450.881 130.634 456.433 135.914L420.344 171.73ZM459.44 132.93L402.068 75.9922L407.62 70.4821L464.992 127.42L459.44 132.93ZM468 124.435L410.628 67.4975L416.18 61.9874L473.552 118.925L468 124.435Z" fill="#202939"/>
<path d="M410.626 134.308C415.353 134.308 419.186 130.505 419.186 125.813C419.186 121.122 415.353 117.318 410.626 117.318C405.899 117.318 402.066 121.122 402.066 125.813C402.066 130.505 405.899 134.308 410.626 134.308Z" fill="#202939"/>
</svg>
